<?xml version="1.0" standalone="no"?>
<svg xmlns:xlink="http://www.w3.org/1999/xlink" id="wave" style="transform:rotate(0deg); transition: 0.3s" viewBox="0 0 1440 490" version="1.1" xmlns="http://www.w3.org/2000/svg"><defs><linearGradient id="sw-gradient-0" x1="0" x2="0" y1="1" y2="0"><stop stop-color="rgba(0, 64, 150, 1)" offset="0%"/><stop stop-color="rgba(30, 142, 171, 1)" offset="100%"/></linearGradient></defs><path style="transform:translate(0, 0px); opacity:1" fill="url(#sw-gradient-0)" d="M0,245L40,245C80,245,160,245,240,261.3C320,278,400,310,480,326.7C560,343,640,343,720,302.2C800,261,880,180,960,196C1040,212,1120,327,1200,359.3C1280,392,1360,343,1440,294C1520,245,1600,196,1680,147C1760,98,1840,49,1920,57.2C2000,65,2080,131,2160,187.8C2240,245,2320,294,2400,334.8C2480,376,2560,408,2640,375.7C2720,343,2800,245,2880,179.7C2960,114,3040,82,3120,73.5C3200,65,3280,82,3360,147C3440,212,3520,327,3600,343C3680,359,3760,278,3840,228.7C3920,180,4000,163,4080,179.7C4160,196,4240,245,4320,294C4400,343,4480,392,4560,416.5C4640,441,4720,441,4800,424.7C4880,408,4960,376,5040,375.7C5120,376,5200,408,5280,408.3C5360,408,5440,376,5520,310.3C5600,245,5680,147,5720,98L5760,49L5760,490L5720,490C5680,490,5600,490,5520,490C5440,490,5360,490,5280,490C5200,490,5120,490,5040,490C4960,490,4880,490,4800,490C4720,490,4640,490,4560,490C4480,490,4400,490,4320,490C4240,490,4160,490,4080,490C4000,490,3920,490,3840,490C3760,490,3680,490,3600,490C3520,490,3440,490,3360,490C3280,490,3200,490,3120,490C3040,490,2960,490,2880,490C2800,490,2720,490,2640,490C2560,490,2480,490,2400,490C2320,490,2240,490,2160,490C2080,490,2000,490,1920,490C1840,490,1760,490,1680,490C1600,490,1520,490,1440,490C1360,490,1280,490,1200,490C1120,490,1040,490,960,490C880,490,800,490,720,490C640,490,560,490,480,490C400,490,320,490,240,490C160,490,80,490,40,490L0,490Z"/><defs><linearGradient id="sw-gradient-1" x1="0" x2="0" y1="1" y2="0"><stop stop-color="rgba(0, 70, 150, 1)" offset="0%"/><stop stop-color="rgba(18, 4, 96, 1)" offset="100%"/></linearGradient></defs><path style="transform:translate(0, 50px); opacity:0.9" fill="url(#sw-gradient-1)" d="M0,245L40,269.5C80,294,160,343,240,326.7C320,310,400,229,480,236.8C560,245,640,343,720,375.7C800,408,880,376,960,326.7C1040,278,1120,212,1200,187.8C1280,163,1360,180,1440,187.8C1520,196,1600,196,1680,212.3C1760,229,1840,261,1920,253.2C2000,245,2080,196,2160,196C2240,196,2320,245,2400,245C2480,245,2560,196,2640,163.3C2720,131,2800,114,2880,147C2960,180,3040,261,3120,253.2C3200,245,3280,147,3360,163.3C3440,180,3520,310,3600,343C3680,376,3760,310,3840,253.2C3920,196,4000,147,4080,138.8C4160,131,4240,163,4320,204.2C4400,245,4480,294,4560,334.8C4640,376,4720,408,4800,383.8C4880,359,4960,278,5040,212.3C5120,147,5200,98,5280,130.7C5360,163,5440,278,5520,318.5C5600,359,5680,327,5720,310.3L5760,294L5760,490L5720,490C5680,490,5600,490,5520,490C5440,490,5360,490,5280,490C5200,490,5120,490,5040,490C4960,490,4880,490,4800,490C4720,490,4640,490,4560,490C4480,490,4400,490,4320,490C4240,490,4160,490,4080,490C4000,490,3920,490,3840,490C3760,490,3680,490,3600,490C3520,490,3440,490,3360,490C3280,490,3200,490,3120,490C3040,490,2960,490,2880,490C2800,490,2720,490,2640,490C2560,490,2480,490,2400,490C2320,490,2240,490,2160,490C2080,490,2000,490,1920,490C1840,490,1760,490,1680,490C1600,490,1520,490,1440,490C1360,490,1280,490,1200,490C1120,490,1040,490,960,490C880,490,800,490,720,490C640,490,560,490,480,490C400,490,320,490,240,490C160,490,80,490,40,490L0,490Z"/></svg>